<svg width="32" height="32" viewBox="0 0 32 32" fill="none" xmlns="http://www.w3.org/2000/svg">
<path fill-rule="evenodd" clip-rule="evenodd" d="M15.9999 6.02499C14.9526 6.02499 13.9156 6.23127 12.948 6.63205C11.9804 7.03284 11.1013 7.62027 10.3607 8.36082C9.62017 9.10136 9.03274 9.98052 8.63196 10.9481C8.23118 11.9157 8.0249 12.9527 8.0249 14C8.0249 18.6157 7.05711 21.3954 6.12842 23H25.8714C24.9427 21.3954 23.9749 18.6157 23.9749 14C23.9749 12.9527 23.7686 11.9157 23.3678 10.9481C22.9671 9.98052 22.3796 9.10136 21.6391 8.36082C20.8985 7.62027 20.0194 7.03284 19.0518 6.63205C18.0842 6.23127 17.0472 6.02499 15.9999 6.02499ZM12.1826 4.7843C13.3929 4.283 14.69 4.02499 15.9999 4.02499C17.3098 4.02499 18.6069 4.283 19.8172 4.7843C21.0274 5.28559 22.127 6.02034 23.0533 6.9466C23.9795 7.87287 24.7143 8.9725 25.2156 10.1827C25.7169 11.3929 25.9749 12.6901 25.9749 14C25.9749 18.3333 26.8817 20.7534 27.6028 21.999L27.6034 22C27.7787 22.3035 27.8711 22.6478 27.8714 22.9982C27.8717 23.3487 27.7799 23.6931 27.6052 23.9969C27.4305 24.3008 27.179 24.5534 26.8759 24.7294C26.5729 24.9054 26.2289 24.9988 25.8784 25L25.8749 25H6.1249L6.12137 25C5.7709 24.9988 5.4269 24.9054 5.12384 24.7294C4.82078 24.5534 4.56931 24.3008 4.39461 23.9969C4.2199 23.6931 4.12811 23.3487 4.12842 22.9982C4.12873 22.6478 4.22113 22.3035 4.39637 22L4.39697 21.999C5.11809 20.7534 6.0249 18.3333 6.0249 14C6.0249 12.6901 6.28291 11.3929 6.7842 10.1827C7.28549 8.9725 8.02024 7.87287 8.94651 6.9466C9.87277 6.02034 10.9724 5.28559 12.1826 4.7843Z" fill="black"/>
<path fill-rule="evenodd" clip-rule="evenodd" d="M12 23C12.5523 23 13 23.4477 13 24V25C13 25.7956 13.3161 26.5587 13.8787 27.1213C14.4413 27.6839 15.2044 28 16 28C16.7956 28 17.5587 27.6839 18.1213 27.1213C18.6839 26.5587 19 25.7956 19 25V24C19 23.4477 19.4477 23 20 23C20.5523 23 21 23.4477 21 24V25C21 26.3261 20.4732 27.5979 19.5355 28.5355C18.5979 29.4732 17.3261 30 16 30C14.6739 30 13.4021 29.4732 12.4645 28.5355C11.5268 27.5979 11 26.3261 11 25V24C11 23.4477 11.4477 23 12 23Z" fill="black"/>
<path fill-rule="evenodd" clip-rule="evenodd" d="M22.0793 2.46621C22.3741 1.99919 22.9917 1.85959 23.4587 2.15439C25.6499 3.53758 27.4184 5.49687 28.5706 7.81784C28.8162 8.31253 28.6143 8.91263 28.1196 9.15821C27.6249 9.40379 27.0248 9.20185 26.7792 8.70717C25.7902 6.71483 24.2721 5.03296 22.3911 3.84562C21.9241 3.55082 21.7845 2.93323 22.0793 2.46621Z" fill="black"/>
<path fill-rule="evenodd" clip-rule="evenodd" d="M9.92054 2.46621C10.2153 2.93323 10.0757 3.55082 9.60872 3.84562C7.72779 5.03296 6.20971 6.71483 5.22063 8.70717C4.97505 9.20185 4.37495 9.40379 3.88027 9.15821C3.38559 8.91263 3.18365 8.31253 3.42923 7.81784C4.58146 5.49687 6.34994 3.53758 8.54113 2.15439C9.00815 1.85959 9.62574 1.99919 9.92054 2.46621Z" fill="black"/>
</svg>
