<svg width="32" height="32" viewBox="0 0 32 32" fill="none" xmlns="http://www.w3.org/2000/svg">
<path fill-rule="evenodd" clip-rule="evenodd" d="M27 7C27.5523 7 28 7.44772 28 8V14C28 14.5523 27.5523 15 27 15C26.4477 15 26 14.5523 26 14V8C26 7.44772 26.4477 7 27 7Z" fill="#ffffff"/>
<path fill-rule="evenodd" clip-rule="evenodd" d="M23 11C23 10.4477 23.4477 10 24 10H30C30.5523 10 31 10.4477 31 11C31 11.5523 30.5523 12 30 12H24C23.4477 12 23 11.5523 23 11Z" fill="#ffffff"/>
<path fill-rule="evenodd" clip-rule="evenodd" d="M21 2C21.5523 2 22 2.44772 22 3V7C22 7.55228 21.5523 8 21 8C20.4477 8 20 7.55228 20 7V3C20 2.44772 20.4477 2 21 2Z" fill="#ffffff"/>
<path fill-rule="evenodd" clip-rule="evenodd" d="M18 5C18 4.44772 18.4477 4 19 4H23C23.5523 4 24 4.44772 24 5C24 5.55228 23.5523 6 23 6H19C18.4477 6 18 5.55228 18 5Z" fill="#ffffff"/>
<path fill-rule="evenodd" clip-rule="evenodd" d="M13.6327 4.20608C13.8878 4.46163 13.9853 4.83485 13.8878 5.1825C13.3851 6.97493 13.3687 8.86884 13.84 10.6697C14.3114 12.4706 15.2537 14.1136 16.57 15.4299C17.8863 16.7463 19.5293 17.6885 21.3302 18.1599C23.1311 18.6312 25.025 18.6148 26.8174 18.1121L27.0874 19.075L28.0508 19.3431C27.4652 21.4471 26.3385 23.361 24.7831 24.894C23.2276 26.4271 21.2977 27.5259 19.1854 28.0809C17.0731 28.636 14.8523 28.6279 12.7441 28.0576C10.636 27.4872 8.71401 26.3745 7.16971 24.8302C5.62541 23.2859 4.51267 21.3639 3.94232 19.2558C3.37198 17.1476 3.36393 14.9268 3.91898 12.8145C4.47403 10.7023 5.57281 8.77228 7.10587 7.21683C8.63894 5.66138 10.5528 4.53473 12.6568 3.94912C13.0046 3.8523 13.3776 3.95052 13.6327 4.20608ZM25.5358 20.4051C23.9653 20.6015 22.3659 20.4983 20.8237 20.0947C18.6794 19.5334 16.7231 18.4115 15.1558 16.8441C13.5884 15.2768 12.4665 13.3205 11.9052 11.1762C11.5016 9.63403 11.3984 8.03462 11.5948 6.46407C10.4564 6.99147 9.41746 7.72064 8.5303 8.62075C7.24253 9.92733 6.31955 11.5485 5.85331 13.3228C5.38707 15.0971 5.39383 16.9626 5.87292 18.7335C6.35201 20.5043 7.28671 22.1188 8.58392 23.416C9.88113 24.7132 11.4956 25.6479 13.2664 26.127C15.0373 26.6061 16.9028 26.6128 18.6771 26.1466C20.4514 25.6804 22.0726 24.7574 23.3792 23.4696C24.2793 22.5824 25.0084 21.5435 25.5358 20.4051Z" fill="#ffffff"/>
</svg>
