<svg width="120" height="120" viewBox="0 0 120 120" fill="none" xmlns="http://www.w3.org/2000/svg">
<g clip-path="url(#clip0_12137_937536)">
<path d="M105 45.2597H97.5V64.0097C97.5 74.3635 89.1037 82.7597 78.75 82.7597H45V90.2597C45 98.5435 51.7162 105.26 60 105.26H82.5L98.85 118.872C100.44 120.196 102.806 119.982 104.13 118.392C104.692 117.717 105 116.866 105 115.985V105.26C113.284 105.26 120 98.5435 120 90.2597V60.2597C120 51.976 113.284 45.2597 105 45.2597Z" fill="#6366f1"/>
<path d="M75 0.259705H15C6.71625 0.259705 0 6.97595 0 15.2597V60.2597C0 68.5435 6.71625 75.2597 15 75.2597V89.6222C15 91.6922 16.68 93.3722 18.75 93.3722C19.6425 93.3722 20.5088 93.0535 21.1875 92.4722L41.25 75.2597H75C83.2838 75.2597 90 68.5435 90 60.2597V15.2597C90 6.97595 83.2838 0.259705 75 0.259705ZM27.7875 43.0472C27.4575 43.411 27.0788 43.726 26.6625 43.9847C26.2575 44.2585 25.8337 44.4985 25.3875 44.6972C24.9225 44.8697 24.4462 45.0085 23.9625 45.1097C23.4825 45.2147 22.9912 45.2635 22.5 45.2597C18.3563 45.2597 15 41.9035 15 37.7597C14.9213 33.6197 18.2138 30.196 22.3538 30.1172C22.8937 30.106 23.4338 30.1547 23.9625 30.2597C24.4462 30.361 24.9225 30.4997 25.3875 30.6722C25.8412 30.8597 26.2688 31.096 26.6625 31.3847C27.0713 31.6435 27.4462 31.9435 27.7875 32.2847C29.2425 33.7322 30.0413 35.7085 30 37.7597C29.9925 39.7472 29.1975 41.6485 27.7875 43.0472ZM50.2875 43.0472C48.8887 44.4572 46.9875 45.2522 45 45.2597C44.5125 45.316 44.025 45.316 43.5375 45.2597C43.0537 45.1585 42.5775 45.0197 42.1125 44.8472C41.6662 44.6485 41.2425 44.4085 40.8375 44.1347C40.4175 43.8647 40.0275 43.5535 39.675 43.1972C38.2425 41.7535 37.4588 39.7922 37.5 37.7597C37.4437 37.2722 37.4437 36.7847 37.5 36.2972C37.6012 35.8135 37.74 35.3372 37.9125 34.8722C38.1 34.4185 38.3363 33.991 38.625 33.5972C38.8913 33.1847 39.195 32.7947 39.525 32.4347C39.885 32.1047 40.275 31.801 40.6875 31.5347C41.0813 31.246 41.5087 31.0097 41.9625 30.8222C42.4725 30.5897 42.9975 30.4022 43.5375 30.2597C47.5987 29.4497 51.5475 32.0897 52.3575 36.151C52.4625 36.6797 52.5112 37.2197 52.5 37.7597C52.5 39.7397 51.72 41.641 50.325 43.0472H50.2875ZM72.7875 43.0472C72.4575 43.411 72.0788 43.726 71.6625 43.9847C71.2575 44.2585 70.8338 44.4985 70.3875 44.6972C69.9225 44.8697 69.4463 45.0085 68.9625 45.1097C68.4825 45.2147 67.9912 45.2635 67.5 45.2597C63.3563 45.2597 60 41.9035 60 37.7597C59.9212 33.6197 63.2138 30.196 67.3538 30.1172C67.8938 30.106 68.4337 30.1547 68.9625 30.2597C69.4463 30.361 69.9225 30.4997 70.3875 30.6722C70.8413 30.8597 71.2688 31.096 71.6625 31.3847C72.0713 31.6435 72.4463 31.9435 72.7875 32.2847C74.2425 33.7322 75.0413 35.7085 75 37.7597C74.9925 39.7472 74.1975 41.6485 72.7875 43.0472Z" fill="#6366f1"/>
</g>
</svg>
