<svg width="32" height="32" viewBox="0 0 32 32" fill="none" xmlns="http://www.w3.org/2000/svg">
<path fill-rule="evenodd" clip-rule="evenodd" d="M12.5126 4.99048C10.5641 4.86867 8.63828 5.46241 7.09668 6.66017C5.55507 7.85793 4.50379 9.57731 4.14028 11.4954C3.77676 13.4135 4.12602 15.3983 5.12247 17.0771C5.2628 17.3135 5.2996 17.5973 5.22421 17.8617L4.46071 20.5393L7.13833 19.7758C7.40273 19.7004 7.68652 19.7372 7.92295 19.8775C9.60173 20.874 11.5865 21.2232 13.5046 20.8597C15.4227 20.4962 17.1421 19.4449 18.3398 17.9033C19.5376 16.3617 20.1313 14.4359 20.0095 12.4874C19.8877 10.539 19.0588 8.7021 17.6783 7.32167C16.2979 5.94124 14.461 5.11228 12.5126 4.99048ZM5.8696 5.08084C7.79601 3.5841 10.2026 2.84217 12.6374 2.99437C15.0721 3.14658 17.3676 4.18246 19.0926 5.90746C20.8176 7.63246 21.8534 9.9279 22.0056 12.3627C22.1578 14.7974 21.4159 17.204 19.9192 19.1304C18.4224 21.0568 16.2739 22.3705 13.877 22.8248C11.6246 23.2516 9.29846 22.8919 7.28531 21.8136L4.57425 22.5866L4.5707 22.5876C4.27147 22.6718 3.95523 22.6747 3.6545 22.5961C3.35376 22.5175 3.0794 22.3602 2.85961 22.1404C2.63982 21.9206 2.48253 21.6462 2.40393 21.3455C2.32532 21.0448 2.32823 20.7285 2.41236 20.4293L2.41337 20.4258L3.1864 17.7147C2.10809 15.7016 1.74837 13.3754 2.17526 11.123C2.62951 8.72613 3.9432 6.57757 5.8696 5.08084Z" fill="#1e293b"/>
<path fill-rule="evenodd" clip-rule="evenodd" d="M19.9766 10.9476C20.0056 10.3961 20.4762 9.97245 21.0277 10.0014C22.7457 10.0916 24.4113 10.624 25.863 11.5471C27.3148 12.4702 28.5035 13.7526 29.3139 15.2701C30.1244 16.7876 30.5291 18.4887 30.4889 20.2086C30.4521 21.7814 30.0444 23.321 29.3016 24.7031L30.0755 27.4169C30.1596 27.7161 30.1625 28.0323 30.0839 28.3331C30.0053 28.6338 29.848 28.9082 29.6282 29.128C29.4084 29.3477 29.1341 29.505 28.8333 29.5836C28.5326 29.6622 28.2163 29.6593 27.9171 29.5752L27.9136 29.5742L25.2029 28.8013C24.0316 29.4297 22.7453 29.8187 21.419 29.9438C19.9464 30.0827 18.4612 29.8927 17.071 29.3876C15.6807 28.8826 14.4199 28.075 13.3798 27.0232C12.3397 25.9715 11.5462 24.7018 11.0566 23.306C10.8738 22.7848 11.1481 22.2142 11.6693 22.0314C12.1905 21.8486 12.7611 22.1229 12.9439 22.644C13.3354 23.7604 13.9701 24.7758 14.8019 25.6169C15.6337 26.458 16.642 27.1039 17.7539 27.5078C18.8657 27.9118 20.0535 28.0637 21.2312 27.9526C22.409 27.8415 23.5474 27.4702 24.5641 26.8655C24.6939 26.7884 24.6981 26.7841 24.8477 26.7634C25.0072 26.7412 25.1885 26.7576 25.3495 26.7634C26.4361 26.802 28.0271 27.5268 28.0271 27.5268L27.2636 24.8492C27.1881 24.5843 27.2252 24.2999 27.3662 24.0632C28.0703 22.8812 28.4573 21.5374 28.4894 20.1619C28.5216 18.7864 28.1979 17.4259 27.5497 16.2123C26.9016 14.9987 25.9509 13.9731 24.7899 13.2348C23.6289 12.4966 22.2968 12.0708 20.9228 11.9986C20.3713 11.9697 19.9477 11.4991 19.9766 10.9476Z" fill="#1e293b"/>
</svg>
